<svg xmlns="http://www.w3.org/2000/svg" width="71" height="81" viewBox="0 0 71 81"><clipPath id="a"><path d="M0 .011h71.277v81.481H0z"/></clipPath><g clip-path="url(#a)"><path fill="#391b08" d="m35.324 6.054 4.835.028c6.311 1.826 13.566 4.492 18.105 10.32l.56.863c1.276 1.493 2.573 2.872 3.635 4.562 3.804 7.501 4.516 10.04 5.28 18.701l.2 4.353c-1.303 8.473-3.24 14.488-8.214 21.162l-1.613 1.533c-1.79 1.677-5.784 5.584-7.526 6.798-6.72 3.979-22.581 4.74-28.758-.662a147 147 0 0 1-7.992-7.989l-2.658-3.684C7.482 55.992 5.757 49.088 5.83 41.72l-.529-2.388c1.088-7.908 3.948-15.344 8.295-21.562l1.329-1.836c6.677-6.25 11.968-8.826 20.398-9.879"/><path fill="#f2510b" d="M58.825 17.265c1.275 1.493 2.572 2.872 3.634 4.562 3.804 7.501 4.516 10.04 5.28 18.701l.2 4.353c-1.303 8.473-3.24 14.488-8.214 21.162-4.815-1.453-7.764-4.712-11.739-8.226-5.511-5.84-12.541-12.015-12.894-20.96l.18-2.518.504-5.827c2.856-3.592 4.033-4.417 7.542-7.178 5.07-2.571 7.154-3.407 12.616-3.603z"/><defs><linearGradient id="b" x1="176.938" x2="165.243" y1="647.246" y2="641.925" gradientUnits="userSpaceOnUse"><stop offset="0" stop-color="#f65800"/><stop offset="1" stop-color="#ff7b0b"/></linearGradient></defs><path fill="url(#b)" d="M183.295 636.975c1.199 1.209 2.418 2.326 3.416 3.695 3.576 6.076 4.245 8.133 4.963 15.148l-1.065.864-6.673-2.854-6.084-1.576c-5.771-.702-10.91-1.074-16.697-1.447l.474-4.72c2.685-2.91 3.791-3.578 7.09-5.814 4.765-2.083 6.724-2.76 11.859-2.919z" transform="matrix(1.06383 0 0 1.23457 -136.17 -769.125)"/><path fill="#f13103" d="M58.825 17.265c1.275 1.493 2.572 2.872 3.634 4.562 3.804 7.501 4.516 10.04 5.28 18.701l-1.133 1.067-7.1-3.524-6.472-1.945c.723-2.35 2.623-15.718 2.9-18.395z"/><path fill="#a34405" d="M62.459 21.827c3.804 7.501 4.516 10.04 5.28 18.701l-1.133 1.067-7.1-3.524c2.184-3.034.633-9.628 2.953-16.244"/><path fill="#ec7707" d="M43.318 21.334c.09 3.218.175 3.778-1.162 6.557-2.509 1.601-3.394 1.709-6.38.621 2.856-3.592 4.033-4.417 7.542-7.178"/><path fill="#a34405" d="M59.713 40.337c3.028 1.512 5.352 2.644 8.227 4.544-1.304 8.473-3.24 14.488-8.215 21.162-4.815-1.453-7.764-4.712-11.739-8.226 3.109-2.183 6.224-5.28 9.081-7.96.933-2.298 1.982-6.921 2.646-9.52"/><path fill="#4f2007" d="M35.272 34.34c6.156.46 11.623.92 17.762 1.786l6.473 1.945 7.099 3.524 1.133-1.067.2 4.353c-2.874-1.9-5.198-3.032-8.226-4.544-7.944-2.96-16.299-4.14-24.621-3.48z"/><defs><linearGradient id="c" x1="162.242" x2="160.072" y1="674.619" y2="652.781" gradientUnits="userSpaceOnUse"><stop offset="0" stop-color="#d63e00"/><stop offset="1" stop-color="#ff7002"/></linearGradient></defs><path fill="url(#c)" d="M157.833 680.69c-3.777-5.509-8.746-22.999-3.77-28.527 2.519-.429 2.808-.239 5.366.377l1.557.304c.332 7.246 6.94 12.247 12.121 16.978 3.736 2.846 6.508 5.486 11.034 6.663l-1.516 1.242c-1.683 1.358-5.437 4.523-7.074 5.506l-13.198 1.55c-1.437-1.148-3.135-2.815-4.52-4.093" transform="matrix(1.06383 0 0 1.23457 -136.17 -769.125)"/><path fill="#a34405" d="M47.772 59.994c4.244 3.898 5.45 5.092 10.34 7.582-1.79 1.677-5.784 5.584-7.526 6.798l-14.04 1.914c-1.529-1.418-3.335-3.476-4.809-5.054.882-.83 2.704-3.495 3.623-4.19 3.933-2.973 8.045-4.381 12.412-7.05"/><path fill="#3b130a" d="M35.092 36.857c.353 8.945 7.383 15.12 12.894 20.96 3.975 3.514 6.924 6.773 11.739 8.226l-1.613 1.533c-4.89-2.49-6.096-3.684-10.34-7.582a50 50 0 0 1-2.262-2.208c-6.437-6.561-11.494-10.963-12.075-21.305z"/><path fill="#a34405" d="M24.464 54.373c2.268 10.387 3.375 14.461 9.508 22.291-3.84-1.147-8.247-2.66-12.144-2.952a147 147 0 0 1-7.992-7.989l-.002-2.173c.026-2.949-.318-5.923-.58-8.866 3.408.153 8.045.65 11.21-.311"/><path fill="#f2510b" d="M5.831 41.718c3.45-3.635 6.272-7.137 10.98-4.645l.998-.425c.022 5.944-2.887 11.6-4.556 18.036.263 2.943.607 5.917.581 8.866l.002 2.173-2.658-3.684C7.482 55.992 5.757 49.088 5.83 41.72"/><path fill="#4f2007" d="M17.809 36.648c.022 5.944-2.887 11.6-4.556 18.036.263 2.943.607 5.917.581 8.866l.002 2.173-2.658-3.684c1.53-13.428 3.49-13.869 5.634-24.966z"/><path fill="#892b07" d="M13.834 63.55c-.893-3.969-1.097-4.665-.58-8.866.262 2.943.606 5.917.58 8.866"/><path fill="#f8762e" d="M14.926 15.933c6.677-6.25 11.968-8.826 20.398-9.879-2.85 3.512-5.24 6.172-7.361 10.343-.91 3.477-1.66 8.188-3.841 10.376L20.6 25.358l-1.467.269c-1.018-1.574-3.34-7.574-4.207-9.694"/><path fill="#ec7707" d="M20.6 25.358c1-4.01 3.023-9.678 7.363-8.96-.91 3.476-1.66 8.187-3.841 10.375z"/><path fill="#f36205" d="M40.159 6.082c6.311 1.826 13.566 4.492 18.105 10.32-6.037.115-9.257.173-14.829 3.08-4.165-6.388-5.753-5.296-11.02-8.098 3.233-2.729 4.085-3.422 7.744-5.302"/><path fill="#f8762e" d="M17.809 36.648c2.23-.84 3.023-1.475 5.088-.614 2.81 4.31.914 12.039 1.567 18.339-3.165.96-7.802.464-11.21.31 1.668-6.435 4.577-12.09 4.555-18.035"/><path fill="#ec7707" d="M32.415 11.384c5.267 2.802 6.855 1.71 11.02 8.097-7.163 5.415-7.591 5.958-16.13 7.598 1.228-6.804 2.126-9.766 5.11-15.695"/><path fill="#f36205" d="M13.597 17.769c7.842 18.999.771 12.435-8.295 21.562 1.088-7.908 3.948-15.344 8.295-21.562"/><path fill="#ec7707" d="m20.6 25.358 3.522 1.415 1.631 2.561-1.102 3.318c-2.669 1.914-3.54 2.413-6.236.33-.778-3.272-.532-2.254.587-6.072l.131-1.283z"/><path fill="#7a3809" d="m20.6 25.358 3.522 1.415 1.631 2.561-6.75-2.424.13-1.283z"/><path fill="#e48720" d="M28.315 27.523c1.79-.216 3.304-.212 5.092.046l.843 1.422-.872 5.234c-1.19-.019-2.454.017-3.629-.204-1.944-.366-2.503-.824-3.552-2.667.305-1.833 1.026-2.579 2.118-3.83"/></g></svg>