<svg xmlns="http://www.w3.org/2000/svg" width="72" height="59" viewBox="0 0 72 59"><clipPath id="a"><path d="M0 0h72v59H0z"/></clipPath><g clip-path="url(#a)"><path fill="#142745" d="M35.665 12.422c5.765 2.482 17.915 7.432 22.611 10.64l.358 1.18c-3.65 3.535-1.799 6.239-2.64 10.913.92 3.357 2.985 4.142 1.553 8.387-2.059.836-1.312.619-3.775.199-4.117-4.809 2.525-10.122-.811-15.865l-5.437 1.716c-2.978 2-8.516 4.022-12 5.437-8.898-3.671-16.137-6.761-24.799-11.108 8.173-3.847 16.649-7.994 24.94-11.499"/><path fill="#132348" d="m47.524 29.592.014-1.297c2.384-1.99 4.977-2.22 7.996-1.91-.007 2.871-.197 6.023.46 8.77.92 3.357 2.985 4.142 1.553 8.387-2.059.836-1.312.619-3.775.199-4.117-4.809 2.525-10.122-.811-15.865z"/><path fill="#142745" d="m20.362 31.383 15.479 6.579a445 445 0 0 1 13.78-6.096l.044 10.445c-4.457 3.353-7.454 4.283-12.702 6.095-7.798-1.231-9.966-1.853-16.646-6.255z"/></g></svg>