<?xml version="1.0" encoding="utf-8" ?><svg xmlns="http://www.w3.org/2000/svg" xmlns:xlink="http://www.w3.org/1999/xlink" width="180" height="182" viewBox="0 0 180 182" xmlns:c2pa="http://c2pa.org/manifest"><metadata><c2pa:manifest>AAAk4Wp1bWIAAAAeanVtZGMycGEAEQAQgAAAqgA4m3EDYzJwYQAAAA6CanVtYgAAAEdqdW1kYzJtYQARABCAAACqADibcQN1cm46YzJwYTpmYjYzMzU0Yi03OTFmLTRkY2QtOWNiYi1kMjZjYjRlMzU0MzQAAAADs2p1bWIAAAApanVtZGMyYXMAEQAQgAAAqgA4m3EDYzJwYS5hc3NlcnRpb25zAAAAAMlqdW1iAAAARGp1bWRjYm9yABEAEIAAAKoAOJtxE2MycGEuaW5ncmVkaWVudC52MwAAAAAYYzJzaA1z8f4sQnDFSZRDY23q7dUAAAB9Y2JvcqRscmVsYXRpb25zaGlwaHBhcmVudE9maGRjOnRpdGxlZnNvdXJjZWlkYzpmb3JtYXRqaW1hZ2Uvd2VicGppbnN0YW5jZUlEeCx4bXA6aWlkOjQ2OTIxNDZiLTdiMDEtNGM3OS04ZjU5LTNjYzQxODlmNTNiMgAAAfVqdW1iAAAAQWp1bWRjYm9yABEAEIAAAKoAOJtxE2MycGEuYWN0aW9ucy52MgAAAAAYYzJzaIcOt0BbxRTz/XxSaVGGrZMAAAGsY2JvcqFnYWN0aW9uc4KiZmFjdGlvbmtjMnBhLm9wZW5lZGpwYXJhbWV0ZXJzoWtpbmdyZWRpZW50c4GiY3VybHgtc2VsZiNqdW1iZj1jMnBhLmFzc2VydGlvbnMvYzJwYS5pbmdyZWRpZW50LnYzZGhhc2hYIDxfL0OkVvmkCa2Q+no5O37Do6FJE7OPRRRz3Zw64w7WpGZhY3Rpb25rYzJwYS5lZGl0ZWRqcGFyYW1ldGVyc6FraW5ncmVkaWVudHOBomN1cmx4LXNlbGYjanVtYmY9YzJwYS5hc3NlcnRpb25zL2MycGEuaW5ncmVkaWVudC52M2RoYXNoWCA8Xy9DpFb5pAmtkPp6OTt+w6OhSROzj0UUc92cOuMO1nFkaWdpdGFsU291cmNlVHlwZXhTaHR0cDovL2N2LmlwdGMub3JnL25ld3Njb2Rlcy9kaWdpdGFsc291cmNldHlwZS9jb21wb3NpdGVXaXRoVHJhaW5lZEFsZ29yaXRobWljTWVkaWFrZGVzY3JpcHRpb252Q3JlYXRlZCBieSBSZWNyYWZ0IEFJLgAAAMRqdW1iAAAAQGp1bWRjYm9yABEAEIAAAKoAOJtxE2MycGEuaGFzaC5kYXRhAAAAABhjMnNoznH/o1HYbXBW2WXhA1C9lwAAAHxjYm9ypWpleGNsdXNpb25zgaJlc3RhcnQY12ZsZW5ndGgZE4xkbmFtZW5qdW1iZiBtYW5pZmVzdGNhbGdmc2hhMjU2ZGhhc2hYIMs8adZzhrZ5yyKqHIqB5mgom54E+pJl+OchoW/VQzGsY3BhZEkAAAAAAAAAAAAAAAKkanVtYgAAACdqdW1kYzJjbAARABCAAACqADibcQNjMnBhLmNsYWltLnYyAAAAAnVjYm9yp2ppbnN0YW5jZUlEeCx4bXA6aWlkOjJlZDRjMGY0LTcxNTktNDY4Yi1hZWU1LTY3ZTI5YzNmM2E2YnRjbGFpbV9nZW5lcmF0b3JfaW5mb6NkbmFtZWpyZWNyYWZ0LmFpZ3ZlcnNpb254KDgxY2U4MmUyYzVjM2NiZmJlOGM2ZmJlMTc5ZDVmOGQ5MWM0MDljZTF3b3JnLmNvbnRlbnRhdXRoLmMycGFfcnNmMC45MC43aXNpZ25hdHVyZXhNc2VsZiNqdW1iZj0vYzJwYS91cm46YzJwYTpmYjYzMzU0Yi03OTFmLTRkY2QtOWNiYi1kMjZjYjRlMzU0MzQvYzJwYS5zaWduYXR1cmVyY3JlYXRlZF9hc3NlcnRpb25zgqJjdXJseCpzZWxmI2p1bWJmPWMycGEuYXNzZXJ0aW9ucy9jMnBhLmFjdGlvbnMudjJkaGFzaFgg4nSgXvwX2boc4pcCaRA3wtvjQdJh9OqhNr/YX5IhIZOiY3VybHgpc2VsZiNqdW1iZj1jMnBhLmFzc2VydGlvbnMvYzJwYS5oYXNoLmRhdGFkaGFzaFggYZAIyM37NaHBoXwn61oFmjzCcvUWFdZ4uok2RxSF5yJzZ2F0aGVyZWRfYXNzZXJ0aW9uc4GiY3VybHgtc2VsZiNqdW1iZj1jMnBhLmFzc2VydGlvbnMvYzJwYS5pbmdyZWRpZW50LnYzZGhhc2hYIDxfL0OkVvmkCa2Q+no5O37Do6FJE7OPRRRz3Zw64w7WaGRjOnRpdGxleBpSZWNyYWZ0IEFJIEdlbmVyYXRlZCBJbWFnZWNhbGdmc2hhMjU2AAAH3Gp1bWIAAAAoanVtZGMyY3MAEQAQgAAAqgA4m3EDYzJwYS5zaWduYXR1cmUAAAAHrGNib3LShFkDsKIBJhghglkB5zCCAeMwggGJoAMCAQICCQC33lpjQ1FuejAKBggqhkjOPQQDAjBAMR8wHQYDVQQDDBZSZWNyYWZ0IFN0YWdpbmcgRGV2IENBMRAwDgYDVQQKDAdSZWNyYWZ0MQswCQYDVQQGEwJVUzAeFw0yNjA2MTIxOTQzNTBaFw0yNzA2MTIxOTQzNTBaMDcxCzAJBgNVBAYTAlVTMRMwEQYDVQQKEwpSZWNyYWZ0IEFJMRMwEQYDVQQDEwpyZWNyYWZ0LmFpMFkwEwYHKoZIzj0CAQYIKoZIzj0DAQcDQgAESmk1WwArIPw3hty3jsWHSA/1QOhBRu9xOjpJ2/iiIghScoEVM+Lnjds/7dqmG+giFL0vEb4DoogpX6KrGLcPNaN1MHMwDAYDVR0TAQH/BAIwADAOBgNVHQ8BAf8EBAMCBsAwEwYDVR0lBAwwCgYIKwYBBQUHAwQwHQYDVR0OBBYEFC8x6QXp/eki9cuCDx2vDJDLIV39MB8GA1UdIwQYMBaAFAILKjgayqqXSv/5v5MWaO2UeHm3MAoGCCqGSM49BAMCA0gAMEUCIFPISltGl775PEkIFRTZGsevWJvWnvBrE9kWU0MPgedQAiEAtA+AZBKEQ+DdK9mUZDctB2Wlt1iAsv0GRjfeYpReMsxZAb0wggG5MIIBX6ADAgECAgkAnPloO0+gE28wCgYIKoZIzj0EAwIwQDEfMB0GA1UEAwwWUmVjcmFmdCBTdGFnaW5nIERldiBDQTEQMA4GA1UECgwHUmVjcmFmdDELMAkGA1UEBhMCVVMwHhcNMjYwNjEyMTk0MDE2WhcNMjgwNjExMTk0MDE2WjBAMR8wHQYDVQQDDBZSZWNyYWZ0IFN0YWdpbmcgRGV2IENBMRAwDgYDVQQKDAdSZWNyYWZ0MQswCQYDVQQGEwJVUzBZMBMGByqGSM49AgEGCCqGSM49AwEHA0IABEPSEAZXFWymij2K0EnzoS/9NLO8VAwu0YpyLizvyNZPfcvcoeqFhfZD8Wj/rcdb9T3ji98q1arie99B9GRog8qjQjBAMA8GA1UdEwEB/wQFMAMBAf8wDgYDVR0PAQH/BAQDAgGGMB0GA1UdDgQWBBQCCyo4Gsqql0r/+b+TFmjtlHh5tzAKBggqhkjOPQQDAgNIADBFAiBUMDSJi5WA3kIY4BfmYqk24HLs0qpjicN0NpUP4bvNxQIhAPTvHC5v8X6FS6geI7XW7h84t1i/qdkTfg0RpMKWLMFboWNwYWRZA6QAAAAAAAAAAAAAAAAAAAAAAAAAAAAAAAAAAAAAAAAAAAAAAAAAAAAAAAAAAAAAAAAAAAAAAAAAAAAAAAAAAAAAAAAAAAAAAAAAAAAAAAAAAAAAAAAAAAAAAAAAAAAAAAAAAAAAAAAAAAAAAAAAAAAAAAAAAAAAAAAAAAAAAAAAAAAAAAAAAAAAAAAAAAAAAAAAAAAAAAAAAAAAAAAAAAAAAAAAAAAAAAAAAAAAAAAAAAAAAAAAAAAAAAAAAAAAAAAAAAAAAAAAAAAAAAAAAAAAAAAAAAAAAAAAAAAAAAAAAAAAAAAAAAAAAAAAAAAAAAAAAAAAAAAAAAAAAAAAAAAAAAAAAAAAAAAAAAAAAAAAAAAAAAAAAAAAAAAAAAAAAAAAAAAAAAAAAAAAAAAAAAAAAAAAAAAAAAAAAAAAAAAAAAAAAAAAAAAAAAAAAAAAAAAAAAAAAAAAAAAAAAAAAAAAAAAAAAAAAAAAAAAAAAAAAAAAAAAAAAAAAAAAAAAAAAAAAAAAAAAAAAAAAAAAAAAAAAAAAAAAAAAAAAAAAAAAAAAAAAAAAAAAAAAAAAAAAAAAAAAAAAAAAAAAAAAAAAAAAAAAAAAAAAAAAAAAAAAAAAAAAAAAAAAAAAAAAAAAAAAAAAAAAAAAAAAAAAAAAAAAAAAAAAAAAAAAAAAAAAAAAAAAAAAAAAAAAAAAAAAAAAAAAAAAAAAAAAAAAAAAAAAAAAAAAAAAAAAAAAAAAAAAAAAAAAAAAAAAAAAAAAAAAAAAAAAAAAAAAAAAAAAAAAAAAAAAAAAAAAAAAAAAAAAAAAAAAAAAAAAAAAAAAAAAAAAAAAAAAAAAAAAAAAAAAAAAAAAAAAAAAAAAAAAAAAAAAAAAAAAAAAAAAAAAAAAAAAAAAAAAAAAAAAAAAAAAAAAAAAAAAAAAAAAAAAAAAAAAAAAAAAAAAAAAAAAAAAAAAAAAAAAAAAAAAAAAAAAAAAAAAAAAAAAAAAAAAAAAAAAAAAAAAAAAAAAAAAAAAAAAAAAAAAAAAAAAAAAAAAAAAAAAAAAAAAAAAAAAAAAAAAAAAAAAAAAAAAAAAAAAAAAAAAAAAAAAAAAAAAAAAAAAAAAAAAAAAAAAAAAAAAAAAAAAAAAAAAAAAAAAAAAAAAAAAAAAAAAAAAAAAAAAAAAAAAAAAAAAAAAAAAAAAAAAAAAAAAAAAAAAAAAAAAAAAAAAAAAAAAAAAAAAAAAAAAAAAAAAAAAAAPZYQDASbRUpNFVIlh/Ljgl0lPDVCq+1ED7jFSI267r6F1Ms+0OjiB3wcgKkCGstn8ZHmsdbLdBnlM2wEuoAk9l8ov4AABY5anVtYgAAAEdqdW1kYzJtYQARABCAAACqADibcQN1cm46YzJwYTo0YzZhNGY4Ni02YTczLTQwMDQtYTVjZS04MDk0MjVhNTI2NGMAAAALeGp1bWIAAAApanVtZGMyYXMAEQAQgAAAqgA4m3EDYzJwYS5hc3NlcnRpb25zAAAACJVqdW1iAAAARGp1bWRjYm9yABEAEIAAAKoAOJtxE2MycGEuaW5ncmVkaWVudC52MwAAAAAYYzJzaNMIEDdEzpDIh6leH0Uf2tQAAAhJY2JvcqdscmVsYXRpb25zaGlwaHBhcmVudE9maGRjOnRpdGxlZnNvdXJjZWlkYzpmb3JtYXRtaW1hZ2Uvc3ZnK3htbHF2YWxpZGF0aW9uUmVzdWx0c6JuYWN0aXZlTWFuaWZlc3SjZ3N1Y2Nlc3OGo2Rjb2RleB1jbGFpbVNpZ25hdHVyZS5pbnNpZGVWYWxpZGl0eWN1cmx4TXNlbGYjanVtYmY9L2MycGEvdXJuOmMycGE6ZmI2MzM1NGItNzkxZi00ZGNkLTljYmItZDI2Y2I0ZTM1NDM0L2MycGEuc2lnbmF0dXJla2V4cGxhbmF0aW9udWNsYWltIHNpZ25hdHVyZSB2YWxpZKNkY29kZXgYY2xhaW1TaWduYXR1cmUudmFsaWRhdGVkY3VybHhNc2VsZiNqdW1iZj0vYzJwYS91cm46YzJwYTpmYjYzMzU0Yi03OTFmLTRkY2QtOWNiYi1kMjZjYjRlMzU0MzQvYzJwYS5zaWduYXR1cmVrZXhwbGFuYXRpb251Y2xhaW0gc2lnbmF0dXJlIHZhbGlko2Rjb2RleBlhc3NlcnRpb24uaGFzaGVkVVJJLm1hdGNoY3VybHhec2VsZiNqdW1iZj0vYzJwYS91cm46YzJwYTpmYjYzMzU0Yi03OTFmLTRkY2QtOWNiYi1kMjZjYjRlMzU0MzQvYzJwYS5hc3NlcnRpb25zL2MycGEuYWN0aW9ucy52MmtleHBsYW5hdGlvbng+aGFzaGVkIHVyaSBtYXRjaGVkOiBzZWxmI2p1bWJmPWMycGEuYXNzZXJ0aW9ucy9jMnBhLmFjdGlvbnMudjKjZGNvZGV4GWFzc2VydGlvbi5oYXNoZWRVUkkubWF0Y2hjdXJseF1zZWxmI2p1bWJmPS9jMnBhL3VybjpjMnBhOmZiNjMzNTRiLTc5MWYtNGRjZC05Y2JiLWQyNmNiNGUzNTQzNC9jMnBhLmFzc2VydGlvbnMvYzJwYS5oYXNoLmRhdGFrZXhwbGFuYXRpb254PWhhc2hlZCB1cmkgbWF0Y2hlZDogc2VsZiNqdW1iZj1jMnBhLmFzc2VydGlvbnMvYzJwYS5oYXNoLmRhdGGjZGNvZGV4GWFzc2VydGlvbi5oYXNoZWRVUkkubWF0Y2hjdXJseGFzZWxmI2p1bWJmPS9jMnBhL3VybjpjMnBhOmZiNjMzNTRiLTc5MWYtNGRjZC05Y2JiLWQyNmNiNGUzNTQzNC9jMnBhLmFzc2VydGlvbnMvYzJwYS5pbmdyZWRpZW50LnYza2V4cGxhbmF0aW9ueEFoYXNoZWQgdXJpIG1hdGNoZWQ6IHNlbGYjanVtYmY9YzJwYS5hc3NlcnRpb25zL2MycGEuaW5ncmVkaWVudC52M6NkY29kZXgYYXNzZXJ0aW9uLmRhdGFIYXNoLm1hdGNoY3VybHhdc2VsZiNqdW1iZj0vYzJwYS91cm46YzJwYTpmYjYzMzU0Yi03OTFmLTRkY2QtOWNiYi1kMjZjYjRlMzU0MzQvYzJwYS5hc3NlcnRpb25zL2MycGEuaGFzaC5kYXRha2V4cGxhbmF0aW9ub2RhdGEgaGFzaCB2YWxpZG1pbmZvcm1hdGlvbmFsgGdmYWlsdXJlgaNkY29kZXgbc2lnbmluZ0NyZWRlbnRpYWwudW50cnVzdGVkY3VybHhNc2VsZiNqdW1iZj0vYzJwYS91cm46YzJwYTpmYjYzMzU0Yi03OTFmLTRkY2QtOWNiYi1kMjZjYjRlMzU0MzQvYzJwYS5zaWduYXR1cmVrZXhwbGFuYXRpb254HXNpZ25pbmcgY2VydGlmaWNhdGUgdW50cnVzdGVkcGluZ3JlZGllbnREZWx0YXOBonZpbmdyZWRpZW50QXNzZXJ0aW9uVVJJeGFzZWxmI2p1bWJmPS9jMnBhL3VybjpjMnBhOmZiNjMzNTRiLTc5MWYtNGRjZC05Y2JiLWQyNmNiNGUzNTQzNC9jMnBhLmFzc2VydGlvbnMvYzJwYS5pbmdyZWRpZW50LnYzcHZhbGlkYXRpb25EZWx0YXOjZ3N1Y2Nlc3OAbWluZm9ybWF0aW9uYWyBo2Rjb2RleBxpbmdyZWRpZW50LnVua25vd25Qcm92ZW5hbmNlY3VybHhhc2VsZiNqdW1iZj0vYzJwYS91cm46YzJwYTpmYjYzMzU0Yi03OTFmLTRkY2QtOWNiYi1kMjZjYjRlMzU0MzQvYzJwYS5hc3NlcnRpb25zL2MycGEuaW5ncmVkaWVudC52M2tleHBsYW5hdGlvbngrc291cmNlOiBpbmdyZWRpZW50IGRvZXMgbm90IGhhdmUgcHJvdmVuYW5jZWdmYWlsdXJlgGppbnN0YW5jZUlEeCx4bXA6aWlkOjMxNWUwYjViLTMwMmItNDhmMi1hMmUwLTEzMjM4OGYxZjkwOW5hY3RpdmVNYW5pZmVzdKNjdXJseD5zZWxmI2p1bWJmPS9jMnBhL3VybjpjMnBhOmZiNjMzNTRiLTc5MWYtNGRjZC05Y2JiLWQyNmNiNGUzNTQzNGNhbGdmc2hhMjU2ZGhhc2hYIN1fTMnCGMQwnKGdqa1WmWPsuCfsj9F24XXQg8ItJD2zbmNsYWltU2lnbmF0dXJlo2N1cmx4TXNlbGYjanVtYmY9L2MycGEvdXJuOmMycGE6ZmI2MzM1NGItNzkxZi00ZGNkLTljYmItZDI2Y2I0ZTM1NDM0L2MycGEuc2lnbmF0dXJlY2FsZ2ZzaGEyNTZkaGFzaFgg8+58T5NcV2+M94hE95gSQNl5mmkvW70tVxqB0kmWy4kAAAHuanVtYgAAAEFqdW1kY2JvcgARABCAAACqADibcRNjMnBhLmFjdGlvbnMudjIAAAAAGGMyc2hhtivEmNqQQVAszZWd6uueAAABpWNib3KhZ2FjdGlvbnOComZhY3Rpb25rYzJwYS5vcGVuZWRqcGFyYW1ldGVyc6FraW5ncmVkaWVudHOBomN1cmx4LXNlbGYjanVtYmY9YzJwYS5hc3NlcnRpb25zL2MycGEuaW5ncmVkaWVudC52M2RoYXNoWCCpE62r3pAKHoCTiSbvBSL6Rfgqjclr1b2OUizG2xer46RmYWN0aW9ubGMycGEuY3JlYXRlZGpwYXJhbWV0ZXJzoWtpbmdyZWRpZW50c4GiY3VybHgtc2VsZiNqdW1iZj1jMnBhLmFzc2VydGlvbnMvYzJwYS5pbmdyZWRpZW50LnYzZGhhc2hYIKkTravekAoegJOJJu8FIvpF+CqNyWvVvY5SLMbbF6vjcWRpZ2l0YWxTb3VyY2VUeXBleEFodHRwOi8vY3YuaXB0Yy5vcmcvbmV3c2NvZGVzL2RpZ2l0YWxzb3VyY2V0eXBlL2NvbXBvc2l0ZVN5bnRoZXRpY2tkZXNjcmlwdGlvbngfQ29tcG9zZWQgaW4gdGhlIFJlY3JhZnQgZWRpdG9yLgAAAMRqdW1iAAAAQGp1bWRjYm9yABEAEIAAAKoAOJtxE2MycGEuaGFzaC5kYXRhAAAAABhjMnNoEHQO1AralOK8c1thSme4KQAAAHxjYm9ypWpleGNsdXNpb25zgaJlc3RhcnQY6GZsZW5ndGgZMSxkbmFtZW5qdW1iZiBtYW5pZmVzdGNhbGdmc2hhMjU2ZGhhc2hYIH/MuDQGEvzuxoneCcYbm703LLrSYZ7qZ+x2T/iFs8qWY3BhZEkAAAAAAAAAAAAAAAKWanVtYgAAACdqdW1kYzJjbAARABCAAACqADibcQNjMnBhLmNsYWltLnYyAAAAAmdjYm9yp2ppbnN0YW5jZUlEeCx4bXA6aWlkOmRlNTIzYjYzLWEyNTYtNDliMy05ZDhhLTRkOGEyMGM1N2UyYXRjbGFpbV9nZW5lcmF0b3JfaW5mb6NkbmFtZWpyZWNyYWZ0LmFpZ3ZlcnNpb254KDgxY2U4MmUyYzVjM2NiZmJlOGM2ZmJlMTc5ZDVmOGQ5MWM0MDljZTF3b3JnLmNvbnRlbnRhdXRoLmMycGFfcnNmMC45MC43aXNpZ25hdHVyZXhNc2VsZiNqdW1iZj0vYzJwYS91cm46YzJwYTo0YzZhNGY4Ni02YTczLTQwMDQtYTVjZS04MDk0MjVhNTI2NGMvYzJwYS5zaWduYXR1cmVyY3JlYXRlZF9hc3NlcnRpb25zgqJjdXJseCpzZWxmI2p1bWJmPWMycGEuYXNzZXJ0aW9ucy9jMnBhLmFjdGlvbnMudjJkaGFzaFggH2h0EOgw2me7HNw/9aiiR2jnyvNQOj/D5e/5xPAWs2iiY3VybHgpc2VsZiNqdW1iZj1jMnBhLmFzc2VydGlvbnMvYzJwYS5oYXNoLmRhdGFkaGFzaFggxQgX1uiipz8gNoh57BA+09nLdA4YbrKfdrCXqMwGzapzZ2F0aGVyZWRfYXNzZXJ0aW9uc4GiY3VybHgtc2VsZiNqdW1iZj1jMnBhLmFzc2VydGlvbnMvYzJwYS5pbmdyZWRpZW50LnYzZGhhc2hYIKkTravekAoegJOJJu8FIvpF+CqNyWvVvY5SLMbbF6vjaGRjOnRpdGxlbVJlY3JhZnQgSW1hZ2VjYWxnZnNoYTI1NgAAB9xqdW1iAAAAKGp1bWRjMmNzABEAEIAAAKoAOJtxA2MycGEuc2lnbmF0dXJlAAAAB6xjYm9y0oRZA7CiASYYIYJZAecwggHjMIIBiaADAgECAgkAt95aY0NRbnowCgYIKoZIzj0EAwIwQDEfMB0GA1UEAwwWUmVjcmFmdCBTdGFnaW5nIERldiBDQTEQMA4GA1UECgwHUmVjcmFmdDELMAkGA1UEBhMCVVMwHhcNMjYwNjEyMTk0MzUwWhcNMjcwNjEyMTk0MzUwWjA3MQswCQYDVQQGEwJVUzETMBEGA1UEChMKUmVjcmFmdCBBSTETMBEGA1UEAxMKcmVjcmFmdC5haTBZMBMGByqGSM49AgEGCCqGSM49AwEHA0IABEppNVsAKyD8N4bct47Fh0gP9UDoQUbvcTo6Sdv4oiIIUnKBFTPi543bP+3aphvoIhS9LxG+A6KIKV+iqxi3DzWjdTBzMAwGA1UdEwEB/wQCMAAwDgYDVR0PAQH/BAQDAgbAMBMGA1UdJQQMMAoGCCsGAQUFBwMEMB0GA1UdDgQWBBQvMekF6f3pIvXLgg8drwyQyyFd/TAfBgNVHSMEGDAWgBQCCyo4Gsqql0r/+b+TFmjtlHh5tzAKBggqhkjOPQQDAgNIADBFAiBTyEpbRpe++TxJCBUU2RrHr1ib1p7waxPZFlNDD4HnUAIhALQPgGQShEPg3SvZlGQ3LQdlpbdYgLL9BkY33mKUXjLMWQG9MIIBuTCCAV+gAwIBAgIJAJz5aDtPoBNvMAoGCCqGSM49BAMCMEAxHzAdBgNVBAMMFlJlY3JhZnQgU3RhZ2luZyBEZXYgQ0ExEDAOBgNVBAoMB1JlY3JhZnQxCzAJBgNVBAYTAlVTMB4XDTI2MDYxMjE5NDAxNloXDTI4MDYxMTE5NDAxNlowQDEfMB0GA1UEAwwWUmVjcmFmdCBTdGFnaW5nIERldiBDQTEQMA4GA1UECgwHUmVjcmFmdDELMAkGA1UEBhMCVVMwWTATBgcqhkjOPQIBBggqhkjOPQMBBwNCAARD0hAGVxVspoo9itBJ86Ev/TSzvFQMLtGKci4s78jWT33L3KHqhYX2Q/Fo/63HW/U944vfKtWq4nvfQfRkaIPKo0IwQDAPBgNVHRMBAf8EBTADAQH/MA4GA1UdDwEB/wQEAwIBhjAdBgNVHQ4EFgQUAgsqOBrKqpdK//m/kxZo7ZR4ebcwCgYIKoZIzj0EAwIDSAAwRQIgVDA0iYuVgN5CGOAX5mKpNuBy7NKqY4nDdDaVD+G7zcUCIQD07xwub/F+hUuoHiO11u4fOLdYv6nZE34NEaTClizBW6FjcGFkWQOkAAAAAAAAAAAAAAAAAAAAAAAAAAAAAAAAAAAAAAAAAAAAAAAAAAAAAAAAAAAAAAAAAAAAAAAAAAAAAAAAAAAAAAAAAAAAAAAAAAAAAAAAAAAAAAAAAAAAAAAAAAAAAAAAAAAAAAAAAAAAAAAAAAAAAAAAAAAAAAAAAAAAAAAAAAAAAAAAAAAAAAAAAAAAAAAAAAAAAAAAAAAAAAAAAAAAAAAAAAAAAAAAAAAAAAAAAAAAAAAAAAAAAAAAAAAAAAAAAAAAAAAAAAAAAAAAAAAAAAAAAAAAAAAAAAAAAAAAAAAAAAAAAAAAAAAAAAAAAAAAAAAAAAAAAAAAAAAAAAAAAAAAAAAAAAAAAAAAAAAAAAAAAAAAAAAAAAAAAAAAAAAAAAAAAAAAAAAAAAAAAAAAAAAAAAAAAAAAAAAAAAAAAAAAAAAAAAAAAAAAAAAAAAAAAAAAAAAAAAAAAAAAAAAAAAAAAAAAAAAAAAAAAAAAAAAAAAAAAAAAAAAAAAAAAAAAAAAAAAAAAAAAAAAAAAAAAAAAAAAAAAAAAAAAAAAAAAAAAAAAAAAAAAAAAAAAAAAAAAAAAAAAAAAAAAAAAAAAAAAAAAAAAAAAAAAAAAAAAAAAAAAAAAAAAAAAAAAAAAAAAAAAAAAAAAAAAAAAAAAAAAAAAAAAAAAAAAAAAAAAAAAAAAAAAAAAAAAAAAAAAAAAAAAAAAAAAAAAAAAAAAAAAAAAAAAAAAAAAAAAAAAAAAAAAAAAAAAAAAAAAAAAAAAAAAAAAAAAAAAAAAAAAAAAAAAAAAAAAAAAAAAAAAAAAAAAAAAAAAAAAAAAAAAAAAAAAAAAAAAAAAAAAAAAAAAAAAAAAAAAAAAAAAAAAAAAAAAAAAAAAAAAAAAAAAAAAAAAAAAAAAAAAAAAAAAAAAAAAAAAAAAAAAAAAAAAAAAAAAAAAAAAAAAAAAAAAAAAAAAAAAAAAAAAAAAAAAAAAAAAAAAAAAAAAAAAAAAAAAAAAAAAAAAAAAAAAAAAAAAAAAAAAAAAAAAAAAAAAAAAAAAAAAAAAAAAAAAAAAAAAAAAAAAAAAAAAAAAAAAAAAAAAAAAAAAAAAAAAAAAAAAAAAAAAAAAAAAAAAAAAAAAAAAAAAAAAAAAAAAAAAAAAAAAAAAAAAAAAAAAAAAAAAAAAAAAAAAAAAAAAAAAAAAAAAAAAAAAAAAAAAAAAAAAAAAAAAAAAAAAAAAAAAAAAAAAAAAAAAAAAAD2WEA9ow2KXGIKRWhd8xZRBzQmfq8R8YiUAZL5eTnpsASTmPfjINmOCaZMDPEIct7JZ5eRaGRBP/NdxTl8Cyo3pKcX</c2pa:manifest></metadata><path fill="#120F92" transform="scale(0.800618 0.800618)" d="M162.518 187.506C161.888 187.777 161.296 188.124 160.69 188.446C154.751 191.609 148.451 194.384 142.034 196.424C138.863 197.433 135.247 198.091 131.969 198.769C110.301 203.253 87.9391 203.192 66.2962 198.59C57.1043 196.672 42.0725 192.319 35.0618 185.941C14.5404 167.273 8.45354 137.064 9.05835 110.401C9.23798 102.483 10.4762 95.8027 11.9912 88.5175C16.4294 65.7719 29.8576 44.7016 51.5713 35.1327C93.0685 16.8457 167.646 16.3346 189.445 64.8424C196.767 81.1351 197.937 98.4247 198.132 115.998C198.266 128.056 197.792 137.85 193.283 149.241C192.835 150.4 192.101 151.131 191.694 152.346L191.632 152.534C190.999 163.351 187.104 171.001 179.28 178.928C176.752 181.49 165.706 187.466 162.518 187.506Z"/><path fill="#FBEBFA" transform="scale(0.800618 0.800618)" d="M162.518 187.506C161.888 187.777 161.296 188.124 160.69 188.446C154.751 191.609 148.451 194.384 142.034 196.424C138.863 197.433 135.247 198.091 131.969 198.769C110.301 203.253 87.9391 203.192 66.2962 198.59C57.1043 196.672 42.0725 192.319 35.0618 185.941C14.5404 167.273 8.45354 137.064 9.05835 110.401C9.23798 102.483 10.4762 95.8027 11.9912 88.5175C16.4294 65.7719 29.8576 44.7016 51.5713 35.1327C93.0685 16.8457 167.646 16.3346 189.445 64.8424C196.767 81.1351 197.937 98.4247 198.132 115.998C198.266 128.056 197.792 137.85 193.283 149.241C192.835 150.4 192.101 151.131 191.694 152.346L191.632 152.534C191.53 150.324 191.462 146.796 191.162 144.694C189.958 136.318 185.894 128.616 179.66 122.894C175.88 119.419 171.352 116.86 166.425 115.414C166.099 108.889 164.231 98.511 163.34 91.7808C162.483 84.9099 161.565 78.0469 160.584 71.1926C160.064 67.6185 159.678 63.5797 158.569 60.1657C155.498 50.71 146.355 45.7921 136.845 48.5305C136.376 44.7423 135.54 41.4975 132.297 39.02C130.453 37.5838 128.097 36.9748 125.788 37.3376C118.684 38.4549 117.193 45.5015 117.436 51.4675C112.861 52.2108 107.541 52.9449 103.048 53.8765C102.526 49.8838 101.911 46.9469 98.6188 44.2936C94.5462 41.0113 89.0365 42.4251 86.0988 46.4107C83.6696 49.7065 83.6192 53.0176 83.7493 56.9258C81.0531 57.1454 71.9625 58.6702 69.534 59.4517C68.8528 55.5437 67.7766 52.1228 64.3773 49.6907C60.2974 46.7717 54.8731 48.1441 52.1883 52.2336C50.0017 55.5049 50.1525 58.8924 50.2552 62.6316C41.1049 63.3444 39.7276 66.7957 34.5947 73.092C30.3295 78.3238 27.601 80.5839 28.6241 88.3492C29.2055 93.8061 30.1937 99.4907 31.0566 105.023L34.3652 127.586C35.7022 136.851 37.0912 146.108 38.532 155.357C39.4695 161.653 40.223 169.471 42.1993 175.426C44.7822 183.208 54.0216 188.019 61.9722 186.953C72.4815 185.545 82.8279 183.442 93.2929 181.716L115.755 178.026C119.9 177.327 126.453 176.297 130.393 175.091C137.709 185.023 150.654 188.81 162.518 187.506Z"/><path fill="#F8FAFD" transform="scale(0.800618 0.800618)" d="M141.416 53.1178C144.066 52.7278 146.765 53.3828 148.941 54.9446C154.79 59.1994 154.364 68.9251 155.372 75.5801C155.49 76.5248 155.883 80.9703 156.164 81.4513C156.675 87.8926 158.069 95.4941 158.925 101.99C159.364 105.327 159.991 111.518 160.649 114.583C150.404 113.234 140.696 117.655 133.483 124.745C128.746 130.423 125.995 134.548 124.007 141.795C122.722 148.037 122.09 153.016 123.538 159.391C123.978 161.076 124.408 162.789 124.865 164.467C125.163 165.445 125.466 166.421 125.777 167.394C126.268 168.302 126.889 169.915 127.309 170.918C121.9 172.308 114.18 173.132 108.497 174.092L84.1818 178.156C78.8921 179.072 62.3085 182.332 57.6262 181.713C53.9672 181.21 50.6518 179.29 48.393 176.368C45.4019 172.479 44.9177 165.673 44.2325 160.903L41.8102 143.944L37.6298 116.367C37.309 114.2 35.8735 104.885 36.0858 103.233C37.1616 100.979 35.9887 101.81 35.3018 98.7972C33.5446 89.5988 30.6413 81.441 39.901 75.6213C40.7275 74.1846 41.3207 73.0416 42.4337 71.8077C44.4157 68.4119 52.4469 67.5762 56.0365 66.8739C56.8754 71.8964 55.2366 77.5193 59.562 80.5979C60.9852 81.5991 62.7532 81.9815 64.463 81.6579C66.3254 81.3094 67.9684 80.2243 69.0199 78.6482C71.1865 75.4452 70.4581 71.431 70.0977 67.7911C70.0357 66.8407 69.8475 65.7138 69.7137 64.757C72.8196 64.3806 88.5785 61.1425 90.1051 61.6978L90.2863 62.4114C90.2866 64.1324 90.2985 65.8533 90.3218 67.5742C90.3586 69.4576 90.4303 71.2167 91.4311 72.8745C93.969 77.0783 99.2689 77.5803 102.481 73.8026C105.339 70.4407 104.272 66.2621 103.968 62.2396L103.504 59.0771C107.175 58.9149 121.403 55.8685 123.449 56.4463C123.79 60.7046 123.011 66.0667 126.217 69.0055C127.531 70.2137 129.282 70.8313 131.063 70.7143C132.98 70.5801 134.525 69.6674 135.808 68.2565C138.623 65.1591 137.649 60.7372 137.342 56.7733C136.894 52.3796 138.064 54.2889 141.237 53.1822L141.416 53.1178Z"/><path fill="#E829F9" transform="scale(0.800618 0.800618)" d="M141.416 53.1178C144.066 52.7278 146.765 53.3828 148.941 54.9446C154.79 59.1994 154.364 68.9251 155.372 75.5801C155.49 76.5248 155.883 80.9703 156.164 81.4513C149.857 82.2651 143.746 83.4667 137.471 84.445L80.9519 93.5975L59.0777 97.1525C56.4166 97.5662 43.8518 99.3314 42.5599 99.9573L42.4986 100.155C40.9789 100.614 37.6874 102.437 36.0858 103.233C37.1616 100.979 35.9887 101.81 35.3018 98.7972C33.5446 89.5988 30.6413 81.441 39.901 75.6213C40.7275 74.1846 41.3207 73.0416 42.4337 71.8077C44.4157 68.4119 52.4469 67.5762 56.0365 66.8739C56.8754 71.8964 55.2366 77.5193 59.562 80.5979C60.9852 81.5991 62.7532 81.9815 64.463 81.6579C66.3254 81.3094 67.9684 80.2243 69.0199 78.6482C71.1865 75.4452 70.4581 71.431 70.0977 67.7911C70.0357 66.8407 69.8475 65.7138 69.7137 64.757C72.8196 64.3806 88.5785 61.1425 90.1051 61.6978L90.2863 62.4114C90.2866 64.1324 90.2985 65.8533 90.3218 67.5742C90.3586 69.4576 90.4303 71.2167 91.4311 72.8745C93.969 77.0783 99.2689 77.5803 102.481 73.8026C105.339 70.4407 104.272 66.2621 103.968 62.2396L103.504 59.0771C107.175 58.9149 121.403 55.8685 123.449 56.4463C123.79 60.7046 123.011 66.0667 126.217 69.0055C127.531 70.2137 129.282 70.8313 131.063 70.7143C132.98 70.5801 134.525 69.6674 135.808 68.2565C138.623 65.1591 137.649 60.7372 137.342 56.7733C136.894 52.3796 138.064 54.2889 141.237 53.1822L141.416 53.1178Z"/><path fill="#5E21F5" transform="scale(0.800618 0.800618)" d="M155.372 75.5801C155.49 76.5248 155.883 80.9703 156.164 81.4513C149.857 82.2651 143.746 83.4667 137.471 84.445L80.9519 93.5975L59.0777 97.1525C56.4166 97.5662 43.8518 99.3314 42.5599 99.9573L42.4986 100.155C40.9789 100.614 37.6874 102.437 36.0858 103.233C37.1616 100.979 35.9887 101.81 35.3018 98.7972C33.5446 89.5988 30.6413 81.441 39.901 75.6213L39.9835 76.0146C39.5028 78.6915 40.7398 92.8266 42.0364 94.6183C44.8207 93.4067 59.7298 91.3217 63.5393 90.6769L135.902 78.8505C140.49 78.0686 145.088 77.3452 149.695 76.6805C150.782 76.5204 154.722 76.1464 155.372 75.5801Z"/><path fill="#220CC9" transform="scale(0.800618 0.800618)" d="M35.3018 98.7972C35.9683 98.6318 39.6198 95.7337 41.8152 94.7821C42.0308 96.3711 42.2523 98.4204 42.5599 99.9573L42.4986 100.155C40.9789 100.614 37.6874 102.437 36.0858 103.233C37.1616 100.979 35.9887 101.81 35.3018 98.7972Z"/><path fill="#FB87FD" transform="scale(0.800618 0.800618)" d="M103.504 59.0771C107.175 58.9149 121.403 55.8685 123.449 56.4463C123.255 57.4237 123.271 58.3753 122.4 58.8399C118.087 61.1418 108.764 61.8493 103.968 62.2396L103.504 59.0771Z"/><path fill="#FB87FD" transform="scale(0.800618 0.800618)" d="M69.7137 64.757C72.8196 64.3806 88.5785 61.1425 90.1051 61.6978L90.2863 62.4114C90.1075 63.0204 90.0306 63.8038 89.4656 63.9992C86.9322 64.8757 71.9986 67.9259 70.0977 67.7911C70.0357 66.8407 69.8475 65.7138 69.7137 64.757Z"/><path fill="#FB87FD" transform="scale(0.800618 0.800618)" d="M42.4337 71.8077C44.4157 68.4119 52.4469 67.5762 56.0365 66.8739C55.978 67.7686 55.998 69.7674 55.3094 70.1201C50.2006 72.7361 43.9019 70.5641 42.9589 79.6244C42.7761 80.1496 42.7414 80.2066 42.3389 80.5899C41.1049 78.9893 42.7444 75.2672 42.7779 73.8197C42.3198 74.1308 41.9494 74.3069 41.4608 74.554C41.4169 73.3326 42.5969 73.3023 42.4337 71.8077Z"/><defs><linearGradient id="gradient_0" gradientUnits="userSpaceOnUse" x1="143.93379" y1="57.926552" x2="138.82466" y2="53.11005"><stop offset="0" stop-color="#FEA6F8"/><stop offset="1" stop-color="#F380FB"/></linearGradient></defs><path fill="url(#gradient_0)" transform="scale(0.800618 0.800618)" d="M137.342 56.7733C136.894 52.3796 138.064 54.2889 141.237 53.1822L141.416 53.1178C142.874 54.9853 144.64 54.491 147.122 56.1279C146.252 56.5296 145.326 56.3521 144.472 56.5645C142.33 56.3771 139.521 56.6051 137.342 56.7733Z"/><path fill="#FC56FE" transform="scale(0.800618 0.800618)" d="M42.4337 71.8077C42.5969 73.3023 41.4169 73.3326 41.4608 74.554C41.9494 74.3069 42.3198 74.1308 42.7779 73.8197C42.7444 75.2672 41.1049 78.9893 42.3389 80.5899C42.7414 80.2066 42.7761 80.1496 42.9589 79.6244C43.3717 82.4977 43.5499 83.9175 43.4404 86.8307C42.5229 84.9703 41.3958 82.4502 40.8008 80.4913C40.513 79.544 41.9877 78.4316 40.63 76.8825C40.1163 77.2859 40.243 77.5428 40.114 78.3684C40.0832 77.5832 40.0397 76.7985 39.9835 76.0146L39.901 75.6213C40.7275 74.1846 41.3207 73.0416 42.4337 71.8077Z"/><path fill="#FB87FD" transform="scale(0.800618 0.800618)" d="M147.122 56.1279C148.658 57.3036 150.359 58.4915 150.591 60.568C149.805 60.7253 146.082 57.3066 144.472 56.5645C145.326 56.3521 146.252 56.5296 147.122 56.1279Z"/><path fill="#5E21F5" transform="scale(0.800618 0.800618)" d="M36.0858 103.233C37.6874 102.437 40.9789 100.614 42.4986 100.155C43.5212 104.548 44.0283 109.431 44.6353 113.91C46.9258 130.811 50.1038 147.839 51.927 164.789C53.7448 165.123 55.5883 168.776 57.3346 170.118C59.171 171.53 60.8163 172.423 63.2401 172.248C67.6902 171.893 72.0272 170.894 76.4315 170.178C91.0552 167.801 105.739 165.541 120.288 162.747C121.237 162.564 122.563 162.326 123.174 161.611C123.232 160.69 123.322 160.293 123.538 159.391C123.978 161.076 124.408 162.789 124.865 164.467C125.163 165.445 125.466 166.421 125.777 167.394C126.268 168.302 126.889 169.915 127.309 170.918C121.9 172.308 114.18 173.132 108.497 174.092L84.1818 178.156C78.8921 179.072 62.3085 182.332 57.6262 181.713C53.9672 181.21 50.6518 179.29 48.393 176.368C45.4019 172.479 44.9177 165.673 44.2325 160.903L41.8102 143.944L37.6298 116.367C37.309 114.2 35.8735 104.885 36.0858 103.233Z"/><path fill="#8EC1FA" transform="scale(0.800618 0.800618)" d="M123.538 159.391C123.978 161.076 124.408 162.789 124.865 164.467C119.639 164.999 113.53 166.124 108.304 166.978L78.1131 172.023C75.1251 172.515 71.8758 173.075 68.9096 173.646C61.9193 174.992 57.6668 175.18 53.2872 168.814C52.6293 167.353 52.0378 166.395 51.927 164.789C53.7448 165.123 55.5883 168.776 57.3346 170.118C59.171 171.53 60.8163 172.423 63.2401 172.248C67.6902 171.893 72.0272 170.894 76.4315 170.178C91.0552 167.801 105.739 165.541 120.288 162.747C121.237 162.564 122.563 162.326 123.174 161.611C123.232 160.69 123.322 160.293 123.538 159.391Z"/><path fill="#220CC9" transform="scale(0.800618 0.800618)" d="M124.865 164.467C125.163 165.445 125.466 166.421 125.777 167.394C123.417 165.99 121.161 167.924 117.416 166.625C115.07 165.811 103.424 168.281 100.845 168.716L72.0402 173.568C69.2117 174.053 65.9539 174.897 63.1734 175.178C60.2118 175.477 53.3424 172.111 53.2872 168.814C57.6668 175.18 61.9193 174.992 68.9096 173.646C71.8758 173.075 75.1251 172.515 78.1131 172.023L108.304 166.978C113.53 166.124 119.639 164.999 124.865 164.467Z"/><path fill="#86D9FC" transform="scale(0.800618 0.800618)" d="M124.007 141.795C124.351 139.107 121.115 131.941 121.976 128.094C122.124 127.43 122.362 126.973 122.962 126.614C124.741 125.55 131.413 124.246 133.483 124.745C128.746 130.423 125.995 134.548 124.007 141.795Z"/><path fill="#86D9FC" transform="scale(0.800618 0.800618)" d="M139.435 94.5937C140.282 94.4872 140.416 94.4714 141.257 94.6418C144.165 96.4955 145.253 110.621 144.345 113.733C143.728 114.334 126.41 117.274 124.058 117.678C123.201 117.808 121.972 117.886 121.219 117.424C120.019 115.995 118.406 101.039 118.415 98.5855C119.991 97.7843 136.726 94.9717 139.435 94.5937Z"/><path fill="#86D9FC" transform="scale(0.800618 0.800618)" d="M110.422 128.329C111.316 128.248 111.996 128.099 112.802 128.483C114.025 129.654 116.131 146.551 114.961 148.558C113.064 149.612 100.25 151.421 97.2364 151.9C95.328 151.832 94.4907 150.913 94.2963 149.001C93.783 143.969 91.801 136.917 92.5785 132.114C92.7954 130.775 108.701 128.633 110.422 128.329Z"/><path fill="#86D9FC" transform="scale(0.800618 0.800618)" d="M105.173 100.341C106.168 100.208 108.741 99.7427 109.05 101.013C109.903 104.52 112.451 116.213 111.389 119.174C109.745 120.885 97.808 122.362 94.9481 122.83C94.0101 122.998 92.0007 123.428 91.4973 122.962C89.3173 120.944 87.3822 105.475 88.5707 103.721C89.5759 102.238 102.859 100.687 105.173 100.341Z"/><path fill="#86D9FC" transform="scale(0.800618 0.800618)" d="M81.7513 133.104L82.5704 133.356C83.8886 134.543 86.482 151.292 85.2667 152.923C84.1306 154.449 70.06 156.392 67.7962 156.585C67.1059 156.287 66.5115 155.902 66.1366 155.257C64.9202 153.163 62.2058 137.747 63.972 136.858C68.0779 134.791 77.0278 133.67 81.7513 133.104Z"/><path fill="#86D9FC" transform="scale(0.800618 0.800618)" d="M74.1746 105.343C76.423 104.912 79.2846 105.025 79.6414 107.984C82.202 129.222 84.9194 123.521 67.4418 127.591C65.008 128.026 61.9585 129.075 61.4122 125.659C60.8243 121.983 58.389 111.481 60.1554 108.286C62.272 106.686 71.0517 105.792 74.1746 105.343Z"/><defs><linearGradient id="gradient_1" gradientUnits="userSpaceOnUse" x1="167.20358" y1="177.48378" x2="146.29623" y2="124.17797"><stop offset="0" stop-color="#049BE2"/><stop offset="1" stop-color="#02BEED"/></linearGradient></defs><path fill="url(#gradient_1)" transform="scale(0.800618 0.800618)" d="M133.055 132.204C138.184 124.512 148.101 118.761 157.489 119.465C163.495 119.337 170.619 122.093 174.998 126.106C179.423 128.921 183.097 135.622 184.748 140.436C187.349 147.413 187.335 153.46 185.249 160.582C176.973 190.012 136.51 189.956 128.959 161.8C126.704 155.776 126.51 145.89 129.118 140.05C129.923 137.552 131.488 134.313 133.055 132.204Z"/><defs><linearGradient id="gradient_2" gradientUnits="userSpaceOnUse" x1="167.49544" y1="180.25172" x2="152.95483" y2="151.15411"><stop offset="0" stop-color="#015BB9"/><stop offset="1" stop-color="#0085D1"/></linearGradient></defs><path fill="url(#gradient_2)" transform="scale(0.800618 0.800618)" d="M128.959 161.8C129.672 162.8 130.385 162.859 130.956 163.701C135.595 170.65 139.911 176.754 148.392 179.007C156.569 181.179 161.703 181.031 169.412 177.076C178.554 172.385 182.032 165.246 184.428 155.744L184.83 157.364L185.241 156.616C185.629 157.465 184.756 158.847 185.249 160.582C176.973 190.012 136.51 189.956 128.959 161.8Z"/><path fill="#93FBFE" transform="scale(0.800618 0.800618)" d="M133.055 132.204C138.184 124.512 148.101 118.761 157.489 119.465C159.123 119.742 160.624 120.097 162.238 120.411C160.028 120.813 158.201 120.486 155.995 121.011C149.646 121.511 137.397 127.479 134.427 133.364C133.937 133.021 133.501 132.604 133.055 132.204Z"/><path fill="#015AB2" transform="scale(0.800618 0.800618)" d="M184.748 140.436C187.349 147.413 187.335 153.46 185.249 160.582C184.756 158.847 185.629 157.465 185.241 156.616L184.83 157.364L184.428 155.744C185.088 153.654 184.913 143.137 184.748 140.436Z"/><path fill="#4DF3FE" transform="scale(0.800618 0.800618)" d="M157.489 119.465C163.495 119.337 170.619 122.093 174.998 126.106C173.281 126.299 167.899 122.689 165.182 122.044C161.395 121.145 159.845 121.049 155.995 121.011C158.201 120.486 160.028 120.813 162.238 120.411C160.624 120.097 159.123 119.742 157.489 119.465Z"/><path fill="#4DF3FE" transform="scale(0.800618 0.800618)" d="M133.055 132.204C133.501 132.604 133.937 133.021 134.427 133.364C133.789 134.559 132.907 136.153 132.377 137.348C131.823 138.593 132.026 139.051 131.179 140.407L131.054 140.16C131.339 139.35 132.165 137.275 132.111 136.562C130.187 136.273 130.055 140.287 129.239 140.19L129.118 140.05C129.923 137.552 131.488 134.313 133.055 132.204Z"/><path fill="#F8FAFD" transform="scale(0.800618 0.800618)" d="M155.285 128.035C161.13 129.428 163.406 128.119 169.499 132.702C174.227 136.303 177.336 141.632 178.143 147.521C179.95 160.302 171.948 171.934 158.983 173.761C154.697 174.335 150.868 173.658 147.038 171.595C141.86 168.841 137.995 164.134 136.301 158.518C134.464 152.306 135.302 144.857 138.445 139.215C142.244 132.397 148.359 130.075 155.285 128.035Z"/><path fill="#120F92" transform="scale(0.800618 0.800618)" d="M154.48 135.292C156.877 135.079 158.139 136.03 158.396 138.439C158.749 141.746 158.749 145.482 158.909 148.814C162.054 148.661 165.234 147.899 168.291 147.773C172.493 147.601 173.01 152.91 167.98 153.446C162.917 154.242 161.246 154.701 156.623 156.634C156.006 156.394 153.71 155.387 153.524 154.584C152.428 149.849 152.431 141.803 152.738 136.836C152.781 136.142 154.029 135.544 154.48 135.292Z"/><defs><linearGradient id="gradient_3" gradientUnits="userSpaceOnUse" x1="88.99234" y1="52.314701" x2="102.16441" y2="62.061333"><stop offset="0" stop-color="#F0F3F9"/><stop offset="1" stop-color="#D3F4FF"/></linearGradient></defs><path fill="url(#gradient_3)" transform="scale(0.800618 0.800618)" d="M89.7515 49.4104C94.5425 44.5056 98.0007 48.7025 99.0113 53.7953C99.8499 58.0212 100.164 62.7299 100.552 67.0152C100.654 71.7317 96.884 74.309 93.8288 70.0316C92.6387 67.2026 92.5943 59.2835 91.5492 55.1968L88.2783 56.234C88.2135 54.5418 88.1105 52.944 88.5709 51.316C88.9798 50.3715 89.0616 50.1596 89.7515 49.4104Z"/><path fill="#8EC1FA" transform="scale(0.800618 0.800618)" d="M88.5709 51.316C88.9798 50.3715 89.0616 50.1596 89.7515 49.4104C90.3451 49.9349 90.5725 49.9751 91.3306 50.0666C94.6924 53.7311 95.0342 60.3029 95.4823 65.0987C95.5509 65.8329 95.3135 66.843 95.3949 67.5565C95.1867 68.2748 94.4535 69.6209 93.8288 70.0316C92.6387 67.2026 92.5943 59.2835 91.5492 55.1968L88.2783 56.234C88.2135 54.5418 88.1105 52.944 88.5709 51.316Z"/><path fill="#519DFD" transform="scale(0.800618 0.800618)" d="M88.5709 51.316L88.9135 51.6461C90.8709 51.5017 91.7943 53.5941 91.5492 55.1968L88.2783 56.234C88.2135 54.5418 88.1105 52.944 88.5709 51.316Z"/><path fill="#8EC1FA" transform="scale(0.800618 0.800618)" d="M95.3949 67.5565C96.8259 66.3847 98.888 66.7548 100.552 67.0152C100.654 71.7317 96.884 74.309 93.8288 70.0316C94.4535 69.6209 95.1867 68.2748 95.3949 67.5565Z"/><path fill="#F8FAFD" transform="scale(0.800618 0.800618)" d="M123.5 44.1389C126.666 40.9565 129.976 42.1327 131.869 45.9249C132.932 48.8908 133.709 55.9999 133.817 59.3044C134.969 61.398 133.615 65.8163 130.714 66.4582C129.949 66.6323 129.146 66.4844 128.493 66.0491C125.853 64.2532 125.955 54.6771 125.142 50.7889C124.14 50.7265 122.909 50.7428 121.887 50.728C121.881 48.38 121.842 45.9573 123.5 44.1389Z"/><defs><linearGradient id="gradient_4" gradientUnits="userSpaceOnUse" x1="122.09031" y1="55.518055" x2="133.16986" y2="55.753399"><stop offset="0" stop-color="#519DFC"/><stop offset="1" stop-color="#6CC6FF"/></linearGradient></defs><path fill="url(#gradient_4)" transform="scale(0.800618 0.800618)" d="M121.887 50.728C121.881 48.38 121.842 45.9573 123.5 44.1389C126.387 46.4975 127.753 50.2224 128.007 53.9234C128.351 56.7576 128.501 58.9178 128.615 61.7735C130.238 61.7122 132.901 62.3194 133.297 62.1353C134.065 61.2336 133.635 60.3713 133.817 59.3044C134.969 61.398 133.615 65.8163 130.714 66.4582C129.949 66.6323 129.146 66.4844 128.493 66.0491C125.853 64.2532 125.955 54.6771 125.142 50.7889C124.14 50.7265 122.909 50.7428 121.887 50.728Z"/><path fill="#86D9FC" transform="scale(0.800618 0.800618)" d="M131.869 45.9249C132.932 48.8908 133.709 55.9999 133.817 59.3044C133.635 60.3713 134.065 61.2336 133.297 62.1353C132.901 62.3194 130.238 61.7122 128.615 61.7735C128.501 58.9178 128.351 56.7576 128.007 53.9234C129.152 56.0436 128.652 60.5513 130.277 61.2979L130.623 61.0513C130.963 60.3063 130.525 51.3408 130.89 49.7294C131.124 48.6968 131.74 46.8101 131.869 45.9249Z"/><path fill="#F8FAFD" transform="scale(0.800618 0.800618)" d="M55.8008 55.4283C64.7465 45.3859 66.4525 67.1894 66.5742 71.9224L66.5834 72.3198C67.7119 75.808 64.6137 79.4943 61.3742 76.6668C59.1789 74.7508 59.1532 69.8897 59.0069 67.0302C58.7184 66.1043 58.2355 62.5433 58.0569 61.3997C56.8925 61.5473 55.7296 61.7056 54.5682 61.8747C54.5172 60.1791 54.5402 59.4313 54.7509 57.7501C55.1068 56.7086 55.2169 56.3479 55.8008 55.4283Z"/><defs><linearGradient id="gradient_5" gradientUnits="userSpaceOnUse" x1="66.807419" y1="72.049446" x2="57.798191" y2="69.355858"><stop offset="0" stop-color="#55B5FD"/><stop offset="1" stop-color="#A7E0FF"/></linearGradient></defs><path fill="url(#gradient_5)" transform="scale(0.800618 0.800618)" d="M60.3817 61.8838C61.3765 64.6306 62.4446 67.5462 62.4353 70.4888C62.4324 71.3901 62.2909 71.8902 62.8434 72.5617C63.3402 72.524 64.3161 72.3725 64.743 72.372C65.4195 72.3713 65.4885 73.24 66.4655 72.5676L66.5834 72.3198C67.7119 75.808 64.6137 79.4943 61.3742 76.6668C59.1789 74.7508 59.1532 69.8897 59.0069 67.0302C59.2046 64.4432 58.3081 63.9641 60.3817 61.8838Z"/><path fill="#8EC1FA" transform="scale(0.800618 0.800618)" d="M55.8008 55.4283C58.5309 56.5498 59.2037 59.2713 60.3817 61.8838C58.3081 63.9641 59.2046 64.4432 59.0069 67.0302C58.7184 66.1043 58.2355 62.5433 58.0569 61.3997C56.8925 61.5473 55.7296 61.7056 54.5682 61.8747C54.5172 60.1791 54.5402 59.4313 54.7509 57.7501C55.1068 56.7086 55.2169 56.3479 55.8008 55.4283Z"/><path fill="#519DFD" transform="scale(0.800618 0.800618)" d="M54.5682 61.8747C54.5172 60.1791 54.5402 59.4313 54.7509 57.7501C56.3438 58.3463 56.8548 58.6608 57.5635 60.2298C57.7378 60.6155 57.9023 61.0056 58.0569 61.3997C56.8925 61.5473 55.7296 61.7056 54.5682 61.8747Z"/><path fill="#120F92" transform="scale(0.800618 0.800618)" d="M52.5843 227C54.7256 223.848 58.6434 224.501 62.0329 225.086C62.9186 225.713 63.796 226.351 64.6651 227L52.5843 227Z"/><path fill="#120F92" transform="scale(0.800618 0.800618)" d="M138.897 227C138.22 226.119 138.206 226.353 138.07 225.371C139.072 223.667 142.044 224.265 141.344 227L138.897 227Z"/><path fill="#120F92" transform="scale(0.800618 0.800618)" d="M117.28 225.071C118.14 224.371 119.448 223.713 120.21 224.818C120.096 225.74 119.98 225.94 119.163 226.582C118.981 226.724 118.797 226.864 118.611 227L116.443 227C116.737 226.35 117.013 225.733 117.28 225.071Z"/><path fill="#120F92" transform="scale(0.800618 0.800618)" d="M110.878 227C111.065 226.143 111.144 225.449 111.669 224.747C112.315 224.19 113.021 224.255 113.885 224.21C113.965 225.152 114.047 226.052 114.067 227L110.878 227Z"/><path fill="#F8FAFD" fill-opacity="0.98823529" transform="scale(0.800618 0.800618)" d="M113.885 224.21C114.752 224.376 116.88 225.047 117.28 225.071C117.013 225.733 116.737 226.35 116.443 227L114.067 227C114.047 226.052 113.965 225.152 113.885 224.21Z"/><path fill="#120F92" transform="scale(0.800618 0.800618)" d="M84.4084 227C84.7081 225.477 84.8313 224.354 86.6806 224.538C87.6879 225.2 87.7477 225.851 87.9025 227L84.4084 227Z"/></svg>