<svg xmlns="http://www.w3.org/2000/svg" width="340" height="332" viewBox="0 0 340 332"><clipPath id="a"><path d="m2.457 0 337.221 2.514-2.457 329.557-337.22-2.514z"/></clipPath><g clip-path="url(#a)"><path fill="#1d2128" d="M65.834 14.56c49.125.666 180.48-7.024 218.84 10.979 14.791 6.94 23.785 23.439 28.81 38.369 10.531 31.288 9.964 201.395-4.722 228.724-9.836 18.303-28.071 27.25-46.831 33.567-26.604 2.036-59.803.577-85.75 1.392C18.013 332.555-5.484 324.017 4.573 160.849 8.257 101.143-13.912 38.213 65.834 14.56"/><path fill="#fff" d="M75.06 173.688c3.423-51.446 13.72-61.13 55.532-89.687l-7.167-5.549c2.187-7.13.47-4.614 8.663-9.018 8.263 1.434 15.304 2.84 23.467 4.77l.503-2.188-5.874-7.29 1.96-3.918c6.587-1.292 25.072.394 28.531 4.777 12.972 16.453 38.582 33.563 51.81 47.159 13.428 13.8 12.467 44.003 19.795 61.426 1.147 2.978 18.478 8.925 18.076 20.74-3.388 99.722-112.468 129.283-185.691 75.848-30.962-22.596-16.757-40.912-25.824-53.193-10.828-21.442-6.524-36.321 16.22-43.877"/><path fill="#e8e5e9" d="M58.84 217.565c-10.827-21.442-6.523-36.321 16.22-43.877l2.433 7.253c1.06 17.261-.79 14.917-12.22 32.234z"/><path fill="#14181c" d="M65.273 213.175c-4.53-9.61-4.224-11.64-2.082-21.963 7.618-9.593 3.748-7.215 14.302-10.27 1.06 17.26-.79 14.916-12.22 32.233"/><path fill="#1d2128" d="M160.83 149c56.633-34.34 71.145.764 59.37 52.4-2.809 12.323 7.624 21.414 9.7 35.9-2.728 15.915-13.454 22.576-25.822 31.413-34.356 12.367-80.111 13.08-105.96-17.212-18.19-21.316 6.103-38.875 5.753-50.478-1.008-33.432-20.27-41.47 16.668-66.085 18.649-.091 24.365 4.73 40.291 14.062"/><path fill="#f8f5f8" d="M122.945 229.659c2.987.762 1.936.347 4.45 1.474l2.31 1.063c31.102 13.955 33.185 12.239 64.074.294l4.435 4.498c-23.79 19.451-61.233 26.821-75.27-7.33"/><path fill="#f8f5f8" d="M187.703 173.071c7.276-1.344 14.383 3.066 16.403 10.186 2.02 7.116-1.707 14.607-8.602 17.285a14.33 14.33 0 0 1-14.849-2.77 14.34 14.34 0 0 1-4.13-14.533 14.34 14.34 0 0 1 11.178-10.168"/><path fill="#fff" d="M131.157 173.148a13.704 13.704 0 0 1 12.188 12.239 13.704 13.704 0 0 1-25.546 8.168 13.708 13.708 0 0 1 13.358-20.407"/><path fill="#f8f5f8" d="m152.082 208.009 1.26-.803c11.981.177 12.732-4.404 23.637.97l-7.629 6.511c-11.375 2.203-9.639 3.757-18.198-.147z"/><path fill="#e8e5e9" d="M117.945 172.413c-.26-9.203 5.76-10.71 12.558-12.748l3.99 2.478-2.864 2.708-.472 8.297a13.72 13.72 0 0 0-10.53 3.367z"/><path fill="#2f2e33" d="m117.945 172.413 13.684-7.562-.472 8.297a13.72 13.72 0 0 0-10.53 3.367z"/><path fill="#cecccf" d="M189.956 161.327c5.159-1.138 3.573-.72 9.176.248l5.622 9.232-14.238-6.004z"/><path fill="#040405" d="M245.942 184.324c6.03 1.85 7.543 3.98 12.083 8.257 3.59 9.458 2.22 11.842.198 22.293-11.292-14.118-13.3-15.229-12.28-30.55"/><path fill="#cecccf" fill-opacity=".031" d="M-547.86-1509.457c18.065-6.081 57.661 10.59 76.549 11.67 10.464.598 14.676-8.598 28.364-3.033l.294 9.695-2.805 2.939c-22.934 3.926-48.157-2.573-71.705-4.282-24.478-3.508-57.881 22.005-59.304 47.35-5.783 108.743-9.346 220.003-3.545 328.746 2.837 53.171 5.416 102.765 4.435 156.18L-594.69 421.888c7.643 7.496 22.568 21.671 25.417 31.626l-4.57-1.238 3.13-3.517-4.914 2.4c-12.023-7.033-17.926-13.78-27.728-23.587l19.267-1393.447c.975-70.189-3.997-125.974-6.918-195.042-2.944-69.637 1.963-148.839 1.182-219.481-.174-15.667 5.705-85.191 15.604-97.028 12.976-15.515 35.952-19 55.33-20.774l-.765-3.465c-30.157-13.373-56.107 15.355-75.325 34.736l-9.773 1310.885-4.393 589.321c32.663 36.252 64.973 27.717 108.511 27.275l140.972-2.007 391.602.98c268.641.692 561.798 13.707 832.31 6.576 13.745-.36 59.715-27.925 70.85-23.603l2.753 6.577c-2.325 16.201-14.079 33.263-32.265 31.472-39.172-3.848-77.605-3.48-116.864-3.788l-356.446-2.703-973.409-7.188c-42.535-.67-46.633 3.063-76.68-27.903l9.605-1289.044 2.887-402.32c.382-69.074.494-139.607 1.665-208.718.155-9.166 3.256-19.445 10.142-25.284 7.502-6.361 26.457-18.691 36.442-17.68 2.89.293 6.038-3.06 9.212-5.377M898.82 470.25c12.466-4.678 17.742-6.03 28.25-14.302l.098-3.38-6.79-.066c-9.51 5.92-17.629 10.304-27.482 15.527l2.094 2.786z"/></g></svg>